HIERARCHY
ROOT Hips
{
	OFFSET 0.000000 0.000000 0.000000 
	CHANNELS 6 Xposition Yposition Zposition Zrotation Yrotation Xrotation
	JOINT LeftUpLeg
	{
		OFFSET 1.363060 -1.794630 0.839290 
		CHANNELS 3 Zrotation Yrotation Xrotation
		JOINT LeftLeg
		{
			OFFSET 2.448110 -6.726130 0.000000 
			CHANNELS 3 Zrotation Yrotation Xrotation
			JOINT LeftFoot
			{
				OFFSET 2.562200 -7.039590 0.000000 
				CHANNELS 3 Zrotation Yrotation Xrotation
				JOINT LeftToeBase
				{
					OFFSET 0.157640 -0.433110 2.322550 
					CHANNELS 3 Zrotation Yrotation Xrotation
					End Site
					{
						OFFSET 0.000000 0.000000 0.000000 
					}
				}
			}
		}
	}
	JOINT RightUpLeg
	{
		OFFSET -1.305520 -1.794630 0.839290 
		CHANNELS 3 Zrotation Yrotation Xrotation
		JOINT RightLeg
		{
			OFFSET -2.542530 -6.985550 0.000000 
			CHANNELS 3 Zrotation Yrotation Xrotation
			JOINT RightFoot
			{
				OFFSET -2.568260 -7.056230 0.000000 
				CHANNELS 3 Zrotation Yrotation Xrotation
				JOINT RightToeBase
				{
					OFFSET -0.164730 -0.452590 2.363150 
					CHANNELS 3 Zrotation Yrotation Xrotation
					End Site
					{
						OFFSET 0.000000 0.000000 0.000000 
					}
				}
			}
		}
	}
	JOINT Spine
	{
		OFFSET 0.028270 2.035590 -0.193380 
		CHANNELS 3 Zrotation Yrotation Xrotation
		JOINT Spine1
		{
			OFFSET 0.056720 2.048850 -0.042750 
			CHANNELS 3 Zrotation Yrotation Xrotation
			JOINT Neck1
			{
				OFFSET -0.054170 1.746240 0.172020 
				CHANNELS 3 Zrotation Yrotation Xrotation
				JOINT Head
				{
					OFFSET 0.104070 1.761360 -0.123970 
					CHANNELS 3 Zrotation Yrotation Xrotation
					End Site
					{
						OFFSET 0.000000 0.000000 0.000000 
					}
				}
			}
			JOINT LeftArm
			{
				OFFSET 3.362410 1.200890 -0.311210 
				CHANNELS 3 Zrotation Yrotation Xrotation
				JOINT LeftForeArm
				{
					OFFSET 4.983000 -0.000000 -0.000000 
					CHANNELS 3 Zrotation Yrotation Xrotation
					JOINT LeftHand
					{
						OFFSET 3.483560 -0.000000 -0.000000 
						CHANNELS 3 Zrotation Yrotation Xrotation
						JOINT LeftHandIndex1
						{
							OFFSET 0.715260 -0.000000 -0.000000 
							CHANNELS 3 Zrotation Yrotation Xrotation
							End Site
							{
								OFFSET 0.000000 0.000000 0.000000 
							}
						}
					}
				}
			}
			JOINT RightArm
			{
				OFFSET -3.136600 1.374050 -0.404650 
				CHANNELS 3 Zrotation Yrotation Xrotation
				JOINT RightForeArm
				{
					OFFSET -5.241900 -0.000000 -0.000000 
					CHANNELS 3 Zrotation Yrotation Xrotation
					JOINT RightHand
					{
						OFFSET -3.444170 -0.000000 -0.000000 
						CHANNELS 3 Zrotation Yrotation Xrotation
						JOINT RightHandIndex1
						{
							OFFSET -0.622530 -0.000000 -0.000000 
							CHANNELS 3 Zrotation Yrotation Xrotation
							End Site
							{
								OFFSET 0.000000 0.000000 0.000000 
							}
						}
					}
				}
			}
		}
	}
}
MOTION
Frames: 15
Frame Time: 0.041667
49.623895 16.946468 4.414696 171.429917 -6.477776 -174.325364 -41.719056 8.254711 8.872602 -1.581435 3.900053 7.040728 1.131386 -8.787860 -15.975934 0.003900 0.405200 1.113400 -1.010603 8.575505 -34.546275 -6.784530 -15.662899 48.063783 -0.635198 -0.455757 -16.323850 -0.235700 3.124800 -8.626300 -0.056459 -2.468258 -0.251129 1.527631 -1.965794 4.946168 1.189197 5.721439 16.684572 -2.881400 2.029500 15.818400 -78.557976 -12.652057 56.199446 54.648711 -54.791392 -30.681579 -0.842727 0.337635 -23.102396 -7.125000 0.000000 0.000000 76.282104 -33.474088 60.206254 -39.326892 49.155497 -15.139040 0.881855 -2.117584 -29.969349 7.125000 0.000000 0.000000 
49.656876 16.908688 4.153602 171.226106 -7.417349 -174.138838 -40.908741 9.465720 9.694825 -1.479589 3.777686 6.823132 1.057261 -11.333361 -14.575012 0.105800 2.097300 5.774700 -0.980248 7.846599 -35.649489 -6.108843 -14.839179 44.911641 -0.653890 -0.357211 -16.455668 -0.435900 4.236700 -11.743500 -0.087882 -2.679223 -0.275714 1.569065 -2.065635 5.103357 1.164505 5.543259 16.848047 -3.023000 2.009900 15.994100 -77.369327 -14.396029 55.888710 56.722205 -55.427394 -32.399453 -0.847199 0.350043 -22.330006 -7.125000 0.000000 0.000000 76.006519 -35.704411 61.176434 -40.438985 49.763397 -15.810306 0.915642 -2.073191 -30.360603 7.125000 0.000000 0.000000 
49.680361 16.861309 3.893019 170.856578 -8.190806 -174.039312 -40.303238 10.853131 10.614243 -1.391172 3.622103 6.508969 0.926989 -13.298936 -13.162637 0.232400 3.102600 8.564400 -1.123404 7.224491 -36.506229 -5.485571 -13.981201 41.798660 -0.662345 -0.127878 -16.447835 -0.671100 5.238700 -14.590700 -0.149521 -2.861071 -0.268898 1.628500 -2.163547 5.280811 1.330314 5.555376 16.837322 -2.926500 2.054400 15.919200 -76.083849 -15.969529 55.483802 58.872464 -56.033906 -34.202649 -0.855524 0.354210 -21.734117 -7.125000 0.000000 0.000000 75.445609 -37.806801 62.543778 -41.732906 50.462038 -16.618546 0.942994 -2.025965 -30.757388 7.125000 0.000000 0.000000 
49.696392 16.809233 3.629679 170.602346 -8.897300 -174.101990 -40.306710 10.776042 12.327732 -1.410944 3.449333 6.157665 0.945358 -12.877783 -13.405728 0.121900 2.251100 6.200200 -1.044818 6.452599 -37.087841 -4.937723 -13.116176 38.774899 -0.626001 0.461703 -15.954125 -0.800200 5.709500 -15.943800 -0.202954 -3.007209 -0.234397 1.677532 -2.247830 5.474720 1.530392 5.498644 16.737449 -2.758100 2.047800 15.726100 -74.710652 -17.470598 54.974838 61.055990 -56.594865 -36.052815 -0.860929 0.354973 -20.666188 -7.125000 0.000000 0.000000 74.636859 -39.798984 64.097855 -43.132513 51.182681 -17.505308 0.976773 -1.971325 -31.034593 7.125000 0.000000 0.000000 
49.711913 16.754707 3.360417 170.325913 -9.542268 -174.171345 -40.067158 11.095317 13.824969 -1.384589 3.308460 5.896693 0.895971 -13.635605 -12.966634 0.157300 2.555600 7.043900 -0.942797 5.616883 -37.561347 -4.461780 -12.251198 35.875528 -0.546669 1.157736 -15.036823 -0.780300 5.639500 -15.742000 -0.258628 -3.149563 -0.191167 1.694230 -2.335357 5.725097 1.586253 5.508707 16.748851 -2.715600 2.065100 15.682600 -73.635745 -18.973526 53.817703 62.014621 -56.813868 -36.893643 -0.848939 0.387536 -17.881575 -7.125000 0.000000 0.000000 73.734773 -41.646217 65.703528 -44.465710 51.829097 -18.369637 0.995034 -1.924161 -31.095643 7.125000 0.000000 0.000000 
49.726617 16.695381 3.091155 169.890549 -10.040965 -174.242472 -39.892711 11.671690 15.084491 -1.339636 3.238826 5.806920 0.809777 -14.773512 -12.283406 0.203800 2.907100 8.020200 -1.057015 5.083114 -37.855556 -4.049755 -11.415871 33.163700 -0.462218 1.842350 -14.192421 -0.566800 4.821800 -13.400900 -0.305341 -3.225829 -0.164781 1.880420 -2.408102 5.925015 1.546511 5.562436 16.912514 -2.760200 2.086300 15.818000 -72.846523 -20.202310 53.150963 63.264895 -57.098569 -37.968561 -0.863996 0.383379 -17.232226 -7.125000 0.000000 0.000000 72.652226 -43.420320 67.402345 -45.798907 52.420415 -19.257053 0.999670 -1.883553 -30.942053 7.125000 0.000000 0.000000 
49.741423 16.635239 2.821586 169.611926 -10.450813 -174.419964 -39.807632 11.739703 16.558132 -1.330417 3.185939 5.776901 0.785469 -15.032493 -12.123461 0.182100 2.748300 7.578800 -0.923156 4.858661 -37.883225 -3.714555 -10.666815 30.713599 -0.384395 2.341808 -13.468631 -0.386000 3.989900 -11.048300 -0.335110 -3.229969 -0.147158 2.133823 -2.444150 6.035995 1.602257 5.430828 17.021407 -2.734800 2.027800 15.884700 -71.856307 -21.194357 52.406452 64.544335 -57.367418 -39.071722 -0.874942 0.383774 -16.279322 -7.125000 0.000000 0.000000 71.483880 -45.095987 69.138592 -47.096692 52.948877 -20.120948 1.005469 -1.843902 -30.410941 7.125000 0.000000 0.000000 
49.760415 16.575913 2.545789 169.607634 -10.835652 -174.631460 -38.774948 12.705453 17.381624 -1.246117 3.380475 6.423240 0.719120 -16.436669 -11.702141 0.161900 2.592500 7.146200 -0.371640 4.780825 -37.843260 -3.470039 -10.064615 28.688916 -0.341558 2.466900 -13.022324 -0.381300 3.965400 -10.979300 -0.360330 -3.201759 -0.122398 2.313598 -2.445228 6.099437 1.873473 5.450354 16.928994 -2.506500 2.049800 15.662600 -70.757123 -22.106003 51.341598 65.085436 -57.466503 -39.562139 -0.874445 0.406446 -14.349797 -7.125000 0.000000 0.000000 70.247090 -46.652889 70.953854 -48.435444 53.481596 -21.018717 1.013490 -1.804474 -29.744893 7.125000 0.000000 0.000000 
49.774302 16.516690 2.264682 169.648640 -11.229575 -174.867682 -38.455690 12.465301 18.927859 -1.247645 3.350564 6.483637 0.724555 -16.337735 -11.709214 0.154600 2.533300 6.982000 0.097272 5.180235 -37.501127 -3.273425 -9.607169 27.084674 -0.395863 2.038139 -13.555410 -0.261000 3.286900 -9.078600 -0.390743 -3.161793 -0.096046 2.351108 -2.435568 6.232466 1.789342 5.323938 17.197869 -2.647900 2.014500 15.879200 -69.857987 -22.721750 50.882839 65.975235 -57.641338 -40.334437 -0.899946 0.401684 -14.696528 -7.125000 0.000000 0.000000 69.104067 -48.035197 72.465676 -49.815920 53.998822 -21.942567 1.048229 -1.760729 -29.416538 7.125000 0.000000 0.000000 
49.780020 16.460632 1.982963 169.554961 -11.665253 -175.112949 -37.980538 12.628809 19.855035 -1.193183 3.648883 7.399045 0.683932 -16.922436 -11.418634 0.169600 2.653300 7.314800 0.266252 5.486686 -37.208514 -3.156985 -9.375880 26.260067 -0.514507 1.490003 -14.867085 -0.061700 1.602900 -4.409400 -0.436194 -3.151719 -0.076647 2.321503 -2.442627 6.364344 1.817563 5.210771 17.436913 -2.711500 2.004200 16.144600 -69.180912 -23.153571 49.604866 65.070984 -57.432521 -39.596528 -0.897902 0.446316 -12.755340 -7.125000 0.000000 0.000000 68.216766 -49.161701 73.560551 -50.802241 54.331088 -22.592790 1.081772 -1.728314 -28.950082 7.125000 0.000000 0.000000 
49.789312 16.404778 1.698486 169.292528 -11.939678 -175.394409 -38.803069 11.571788 21.577311 -1.274221 3.764339 7.801781 0.889263 -14.675664 -12.924987 0.006600 0.525300 1.443400 0.321739 5.632006 -37.336813 -3.173770 -9.463011 26.507870 -0.557132 0.884576 -15.064550 -0.169500 2.651900 -7.311100 -0.503030 -2.998065 -0.031637 2.384577 -2.392453 6.479235 1.946702 5.047910 17.493015 -2.615600 1.936000 16.093000 -68.558677 -23.421446 49.038565 64.869186 -57.383968 -39.445248 -0.901630 0.442603 -12.527340 -7.125000 0.000000 0.000000 67.595823 -50.095677 74.483987 -51.201960 54.451165 -22.868564 1.051252 -1.731198 -27.734075 7.125000 0.000000 0.000000 
49.795438 16.349435 1.413397 168.661882 -12.230835 -175.624447 -39.388167 11.368356 22.537434 -1.253006 4.178622 8.971933 0.943106 -14.098228 -13.392650 0.003700 -0.390800 -1.073900 -0.285775 5.925786 -37.347159 -3.222773 -9.667336 27.214103 -0.602687 0.298998 -15.328870 -0.246600 3.195500 -8.823400 -0.548106 -2.929207 -0.044323 2.759495 -2.403734 6.378623 2.014093 5.021589 17.565687 -2.580000 1.923000 16.099700 -68.143480 -23.234039 48.805505 64.892732 -57.384085 -39.471574 -0.925077 0.418458 -13.737055 -7.125000 0.000000 0.000000 66.609405 -50.903307 75.599385 -52.050018 54.710494 -23.456419 1.065023 -1.710470 -27.162502 7.125000 0.000000 0.000000 
49.795847 16.303486 1.124530 168.188963 -12.612709 -175.909484 -39.934801 10.959120 23.497025 -1.216404 4.648419 10.309781 0.988682 -13.431734 -13.771300 0.040300 -1.295300 -3.561700 -0.840970 6.501699 -36.687561 -3.256289 -9.830266 27.709004 -0.613801 -0.095977 -15.278006 -0.099300 2.032400 -5.595100 -0.613357 -2.914068 -0.059982 2.903465 -2.412821 6.256201 2.130139 4.893951 17.662125 -2.495600 1.858000 16.091400 -67.712533 -22.939420 48.421126 64.302164 -57.246612 -38.982814 -0.930587 0.396552 -14.617190 -7.125000 0.000000 0.000000 65.872013 -51.380502 76.567429 -52.508732 54.845885 -23.768706 1.073262 -1.697499 -26.687220 7.125000 0.000000 0.000000 
49.790435 16.259272 0.824430 168.549928 -12.915196 -176.349901 -39.180785 11.067419 24.249879 -1.102378 5.154269 11.822277 0.970411 -13.550537 -13.469631 0.057700 -1.550100 -4.263800 -0.112933 7.396036 -35.509847 -3.317147 -10.008406 27.971906 -0.554992 -0.183169 -14.490786 -0.000000 0.019200 -0.052600 -0.620210 -2.771143 -0.060599 2.811213 -2.316793 6.220997 2.265695 4.880339 17.730306 -2.361000 1.833700 16.064400 -68.451199 -22.522572 47.669141 62.979324 -56.950973 -37.880566 -0.917062 0.415199 -13.727393 -7.125000 0.000000 0.000000 65.599840 -51.608491 76.838849 -52.412434 54.800714 -23.684757 1.075803 -1.696159 -26.270018 7.125000 0.000000 0.000000 
49.778080 16.221186 0.518817 168.948249 -13.349967 -176.887641 -39.243004 10.245924 25.162712 -1.010084 5.846614 13.832895 1.068892 -11.806590 -14.313198 0.369900 -3.906700 -10.814400 0.959006 7.620834 -34.047557 -3.409414 -10.216151 28.350835 -0.467536 -0.181485 -13.140498 -0.007600 -0.564300 1.550700 -0.602920 -2.630102 -0.063361 2.664493 -2.230752 6.272780 2.006073 4.874417 18.123281 -2.614900 1.822300 16.579700 -67.611582 -21.789130 48.220630 62.763720 -56.891179 -37.689011 -0.917080 0.388792 -14.784036 -7.125000 0.000000 0.000000 65.653572 -51.714770 76.549580 -52.224416 54.707945 -23.551630 1.068169 -1.704553 -25.800076 7.125000 0.000000 0.000000 
